# xmcd
#
# Track frame offsets:
#       150
#       12014
#       22817
#       33951
#       45300
#       56827
#       66137
#       76947
#       86377
#       96785
#       108174
#       134295
#       156350
#       174303
#       193367
#       213018
#       232171
#       274840
#       283626
#       293835
#       318736
#       332558
#
# Disc length: 4667 seconds
#
# Revision: 0
# Processed by: cddbd v1.4PL0 Copyright (c) Steve Scherf et al.
# Submitted via: CD-DA_X-Tractor v0.21
#
DISCID=2c123916
DTITLE=Janis Joplin - BB&HC/Cheap Thrills
DYEAR=1900
DGENRE=
TTITLE0=Bye, Bye Baby
TTITLE1=Easy Rider
TTITLE2=Intruder
TTITLE3=Light Is Faster Than Sound
TTITLE4=Call On Me
TTITLE5=Women Is Losers
TTITLE6=Blindman
TTITLE7=Down On Me
TTITLE8=CaterPillar
TTITLE9=All Is Loneliness
TTITLE10=Combination Of The Two
TTITLE11=I Need A Man To Love
TTITLE12=Summertime
TTITLE13=Piece Of My Heart
TTITLE14=Turtle Blues
TTITLE15=Oh, Sweet Mary
TTITLE16=Ball And Chain
TTITLE17=Coo Coo
TTITLE18=The Last Time
TTITLE19=Roadblock
TTITLE20=Flower In The Sun
TTITLE21=Easy Once You Know How
EXTD=
EXTT0=
EXTT1=
EXTT2=
EXTT3=
EXTT4=
EXTT5=
EXTT6=
EXTT7=
EXTT8=
EXTT9=
EXTT10=
EXTT11=
EXTT12=
EXTT13=
EXTT14=
EXTT15=
EXTT16=
EXTT17=
EXTT18=
EXTT19=
EXTT20=
EXTT21=
PLAYORDER=
